<?xml version="1.0" standalone="no"?>
<!DOCTYPE svg PUBLIC "-//W3C//DTD SVG 20010904//EN"
 "http://www.w3.org/TR/2001/REC-SVG-20010904/DTD/svg10.dtd">
<svg version="1.0" xmlns="http://www.w3.org/2000/svg"
 width="880.000000pt" height="892.000000pt" viewBox="0 0 880.000000 892.000000"
 preserveAspectRatio="xMidYMid meet">

<g transform="translate(0.000000,892.000000) scale(0.100000,-0.100000)"
fill="#000000" stroke="none">
<path d="M2490 8496 c0 -3 82 -60 183 -127 699 -470 927 -642 1181 -891 124
-121 129 -127 86 -110 -103 42 -214 64 -360 72 -134 6 -160 6 -149 -3 2 -2 65
-36 139 -76 262 -141 545 -348 689 -507 l54 -59 -29 -7 c-16 -4 -103 -13 -193
-20 l-165 -13 210 -164 c234 -184 406 -349 444 -426 20 -40 25 -64 24 -125 0
-67 -4 -82 -39 -150 -43 -81 -140 -214 -284 -389 -50 -61 -91 -112 -91 -114 0
-2 53 -7 118 -10 358 -19 569 -107 926 -385 207 -161 285 -194 404 -168 l64
13 -7 -36 c-13 -70 -58 -198 -97 -276 -67 -132 -58 -125 -131 -109 -34 7 -81
13 -103 14 l-42 0 -35 -102 c-46 -134 -61 -182 -91 -303 -43 -173 -154 -800
-143 -811 2 -3 14 24 27 58 38 105 107 255 171 372 75 137 88 152 47 55 -31
-73 -78 -230 -78 -259 0 -8 20 28 43 81 84 185 201 351 365 519 l103 105 -85
-118 c-119 -165 -189 -280 -267 -442 -64 -132 -136 -321 -126 -331 2 -3 23 27
46 65 60 102 174 253 340 450 351 418 408 501 470 689 31 94 45 239 31 325
-13 83 -32 120 -195 382 -182 291 -245 436 -264 609 -6 49 -13 91 -15 93 -3 3
-13 -21 -23 -53 -18 -61 -23 -201 -10 -279 l7 -40 -16 40 c-49 130 -75 336
-63 506 4 57 5 106 3 108 -9 9 -57 -46 -80 -91 -37 -73 -54 -208 -65 -513 -5
-153 -11 -281 -13 -282 -2 -2 -14 5 -28 16 -98 78 -195 456 -258 1013 l-19
167 -70 118 c-165 279 -338 500 -586 749 -334 335 -626 546 -1105 797 -136 72
-465 221 -655 297 -66 27 -137 56 -157 64 -21 9 -38 14 -38 12z"/>
<path d="M5585 6521 c6 -5 36 -18 67 -30 73 -26 182 -81 254 -127 31 -20 57
-34 60 -32 5 6 -79 129 -103 151 -11 9 -44 21 -74 26 -84 14 -214 22 -204 12z
m193 -26 c58 -7 65 -10 96 -48 51 -65 53 -73 11 -47 -21 13 -77 43 -124 67
-47 24 -77 41 -66 39 11 -3 48 -8 83 -11z"/>
<path d="M6267 6453 c20 -48 43 -196 44 -288 l1 -70 15 60 c21 91 22 242 0
282 -32 59 -84 73 -60 16z"/>
</g>
</svg>
